<svg width="175" height="28" viewBox="0 0 175 28" fill="none" xmlns="http://www.w3.org/2000/svg">
<g clip-path="url(#clip0_34_3812)">
<mask id="mask0_34_3812" style="mask-type:luminance" maskUnits="userSpaceOnUse" x="0" y="1" width="69" height="26">
<path d="M69 1H0V27H69V1Z" fill="white"/>
</mask>
<g mask="url(#mask0_34_3812)">
<path d="M67.5633 13.4109L69 11.9136V7.36067L64.6855 2.81242H50.3145L46 7.36067V4.3285L44.5633 2.81242H38.8122L37.3755 4.3285V7.36067L34.5023 10.3975L31.6289 7.36067V4.3285L30.1878 2.81242H24.4367L23 4.3285L21.5633 2.81242H15.8122L14.3756 4.3285V10.3975L7.18778 2.81242H1.43668L0 4.3285V25.5631L1.43668 27.079H7.18778L8.62889 25.5631V19.4987L15.8122 27.079H21.5633L23 25.5631V13.4297L30.1878 21.0148V25.5631L31.6289 27.079H37.3755L38.8122 25.5631V21.0148L46 13.4297V22.5308L50.3145 27.079H64.6855L69 22.5308V17.9826L67.5633 16.4618H60.3711V17.9826H54.6245V11.9136H60.3711V13.4109H67.5633Z" fill="#3070CF"/>
</g>
</g>
<path d="M77.955 11V3.77H78.88V6.85H82.78V3.77H83.705V11H82.78V7.665H78.88V11H77.955ZM87.5379 11.1C87.0579 11.1 86.6346 10.995 86.2679 10.785C85.9012 10.575 85.6146 10.2733 85.4079 9.88C85.2012 9.48667 85.0979 9.015 85.0979 8.465C85.0979 7.92167 85.1912 7.445 85.3779 7.035C85.5646 6.625 85.8346 6.305 86.1879 6.075C86.5446 5.845 86.9729 5.73 87.4729 5.73C87.9596 5.73 88.3712 5.835 88.7079 6.045C89.0446 6.255 89.2996 6.55167 89.4729 6.935C89.6496 7.315 89.7379 7.76667 89.7379 8.29V8.63H86.0329C86.0329 8.95667 86.0862 9.25333 86.1929 9.52C86.3029 9.78333 86.4679 9.99333 86.6879 10.15C86.9079 10.3067 87.1862 10.385 87.5229 10.385C87.8529 10.385 88.1362 10.3083 88.3729 10.155C88.6129 10.0017 88.7662 9.78 88.8329 9.49H89.7029C89.6429 9.84 89.5029 10.135 89.2829 10.375C89.0662 10.615 88.8046 10.7967 88.4979 10.92C88.1946 11.04 87.8746 11.1 87.5379 11.1ZM86.0379 8.005H88.8479C88.8479 7.70833 88.7979 7.44167 88.6979 7.205C88.5979 6.965 88.4446 6.77667 88.2379 6.64C88.0346 6.5 87.7779 6.43 87.4679 6.43C87.1446 6.43 86.8762 6.50833 86.6629 6.665C86.4496 6.81833 86.2912 7.01667 86.1879 7.26C86.0846 7.5 86.0346 7.74833 86.0379 8.005ZM92.4084 11.1C92.0717 11.1 91.775 11.0417 91.5184 10.925C91.265 10.805 91.065 10.6333 90.9184 10.41C90.775 10.1867 90.7034 9.91667 90.7034 9.6C90.7034 9.02667 90.9034 8.6 91.3034 8.32C91.7034 8.04 92.345 7.89 93.2284 7.87L94.1484 7.845V7.44C94.1484 7.12333 94.0534 6.87333 93.8634 6.69C93.6734 6.50333 93.38 6.41 92.9834 6.41C92.6867 6.41333 92.425 6.48333 92.1984 6.62C91.9717 6.75667 91.8267 6.98 91.7634 7.29H90.9484C90.9684 6.95333 91.0617 6.67 91.2284 6.44C91.3984 6.20667 91.6367 6.03 91.9434 5.91C92.25 5.79 92.6117 5.73 93.0284 5.73C93.4784 5.73 93.8517 5.79333 94.1484 5.92C94.4484 6.04667 94.6717 6.23333 94.8184 6.48C94.9684 6.72667 95.0434 7.03 95.0434 7.39V11H94.2534L94.1834 10.03C93.9867 10.4333 93.7334 10.7133 93.4234 10.87C93.1167 11.0233 92.7784 11.1 92.4084 11.1ZM92.6834 10.435C92.86 10.435 93.0334 10.4033 93.2034 10.34C93.3767 10.2767 93.5334 10.1917 93.6734 10.085C93.8167 9.975 93.9317 9.85333 94.0184 9.72C94.105 9.58333 94.1484 9.44333 94.1484 9.3V8.415L93.3834 8.43C92.9867 8.43667 92.6567 8.47667 92.3934 8.55C92.13 8.62333 91.9317 8.73833 91.7984 8.895C91.665 9.05167 91.5984 9.25667 91.5984 9.51C91.5984 9.8 91.7 10.0267 91.9034 10.19C92.1067 10.3533 92.3667 10.435 92.6834 10.435ZM97.7907 11.065C97.5107 11.065 97.284 11.0267 97.1107 10.95C96.9407 10.8733 96.809 10.77 96.7157 10.64C96.6257 10.51 96.564 10.3617 96.5307 10.195C96.5007 10.025 96.4857 9.85 96.4857 9.67V3.57H97.3957V9.58C97.3957 9.84 97.4457 10.035 97.5457 10.165C97.649 10.295 97.7924 10.3667 97.9757 10.38L98.2557 10.385V10.985C98.179 11.0083 98.099 11.0267 98.0157 11.04C97.9324 11.0567 97.8574 11.065 97.7907 11.065ZM101.027 11.025C100.671 11.025 100.394 10.9767 100.197 10.88C100.001 10.7833 99.8622 10.64 99.7822 10.45C99.7055 10.26 99.6672 10.0267 99.6672 9.75V6.505H98.8272V5.83H99.6922L99.9172 4.325H100.597V5.825H101.762V6.505H100.597V9.72C100.597 9.90333 100.616 10.0383 100.652 10.125C100.692 10.2083 100.757 10.2617 100.847 10.285C100.937 10.3083 101.064 10.32 101.227 10.32H101.792V10.94C101.729 10.9633 101.632 10.9833 101.502 11C101.376 11.0167 101.217 11.025 101.027 11.025ZM103.019 11V3.57H103.919V6.59C104.006 6.44667 104.122 6.31333 104.269 6.19C104.416 6.06333 104.594 5.96167 104.804 5.885C105.014 5.805 105.257 5.765 105.534 5.765C105.871 5.765 106.176 5.82833 106.449 5.955C106.722 6.07833 106.939 6.255 107.099 6.485C107.259 6.715 107.339 6.98833 107.339 7.305V11H106.414V7.49C106.414 7.18 106.307 6.94167 106.094 6.775C105.884 6.605 105.609 6.52 105.269 6.52C105.039 6.52 104.822 6.55833 104.619 6.635C104.416 6.70833 104.251 6.82167 104.124 6.975C104.001 7.125 103.939 7.31667 103.939 7.55V11H103.019ZM112.662 11.1C112.326 11.1 112.029 11.0417 111.772 10.925C111.519 10.805 111.319 10.6333 111.172 10.41C111.029 10.1867 110.957 9.91667 110.957 9.6C110.957 9.02667 111.157 8.6 111.557 8.32C111.957 8.04 112.599 7.89 113.482 7.87L114.402 7.845V7.44C114.402 7.12333 114.307 6.87333 114.117 6.69C113.927 6.50333 113.634 6.41 113.237 6.41C112.941 6.41333 112.679 6.48333 112.452 6.62C112.226 6.75667 112.081 6.98 112.017 7.29H111.202C111.222 6.95333 111.316 6.67 111.482 6.44C111.652 6.20667 111.891 6.03 112.197 5.91C112.504 5.79 112.866 5.73 113.282 5.73C113.732 5.73 114.106 5.79333 114.402 5.92C114.702 6.04667 114.926 6.23333 115.072 6.48C115.222 6.72667 115.297 7.03 115.297 7.39V11H114.507L114.437 10.03C114.241 10.4333 113.987 10.7133 113.677 10.87C113.371 11.0233 113.032 11.1 112.662 11.1ZM112.937 10.435C113.114 10.435 113.287 10.4033 113.457 10.34C113.631 10.2767 113.787 10.1917 113.927 10.085C114.071 9.975 114.186 9.85333 114.272 9.72C114.359 9.58333 114.402 9.44333 114.402 9.3V8.415L113.637 8.43C113.241 8.43667 112.911 8.47667 112.647 8.55C112.384 8.62333 112.186 8.73833 112.052 8.895C111.919 9.05167 111.852 9.25667 111.852 9.51C111.852 9.8 111.954 10.0267 112.157 10.19C112.361 10.3533 112.621 10.435 112.937 10.435ZM116.74 11V5.83H117.635V6.58C117.718 6.43667 117.833 6.30167 117.98 6.175C118.13 6.04833 118.31 5.94667 118.52 5.87C118.733 5.79333 118.978 5.755 119.255 5.755C119.581 5.755 119.881 5.82 120.155 5.95C120.431 6.08 120.651 6.28333 120.815 6.56C120.981 6.83333 121.065 7.18667 121.065 7.62V11H120.14V7.71C120.14 7.30667 120.033 7.00833 119.82 6.815C119.61 6.61833 119.336 6.52 119 6.52C118.766 6.52 118.548 6.55833 118.345 6.635C118.141 6.70833 117.976 6.82167 117.85 6.975C117.723 7.125 117.66 7.315 117.66 7.545V11H116.74ZM124.396 11.1C123.723 11.1 123.189 10.87 122.796 10.41C122.406 9.95 122.211 9.27833 122.211 8.395C122.211 7.85833 122.289 7.39 122.446 6.99C122.603 6.59 122.838 6.28 123.151 6.06C123.464 5.84 123.854 5.73 124.321 5.73C124.571 5.73 124.791 5.76167 124.981 5.825C125.171 5.88833 125.336 5.96833 125.476 6.065C125.616 6.16167 125.729 6.26167 125.816 6.365C125.906 6.46833 125.973 6.56333 126.016 6.65V3.57H126.951V11H126.241L126.141 9.94C126.108 10.04 126.054 10.1567 125.981 10.29C125.908 10.42 125.804 10.5483 125.671 10.675C125.541 10.7983 125.371 10.9 125.161 10.98C124.951 11.06 124.696 11.1 124.396 11.1ZM124.561 10.39C125.081 10.39 125.453 10.2317 125.676 9.915C125.903 9.595 126.016 9.07333 126.016 8.35C126.013 7.94667 125.963 7.60333 125.866 7.32C125.769 7.03667 125.616 6.82167 125.406 6.675C125.199 6.525 124.923 6.45 124.576 6.45C124.153 6.45 123.808 6.60167 123.541 6.905C123.274 7.20833 123.141 7.69 123.141 8.35C123.141 8.99667 123.261 9.49833 123.501 9.855C123.741 10.2117 124.094 10.39 124.561 10.39ZM77.415 25L80.03 17.77H81.075L83.69 25H82.745L82.035 23.02H79.07L78.355 25H77.415ZM79.315 22.17H81.78L80.55 18.675L79.315 22.17ZM85.0468 25V20.505H83.9518V19.83H85.0468V19.03C85.0468 18.62 85.1501 18.3083 85.3568 18.095C85.5668 17.8783 85.8801 17.77 86.2968 17.77H87.2718L87.2768 18.425H86.5068C86.2935 18.425 86.1485 18.4817 86.0718 18.595C85.9951 18.7083 85.9568 18.88 85.9568 19.11V19.83H87.2268V20.505H85.9718V25H85.0468ZM88.7577 25V20.505H87.6627V19.83H88.7577V19.03C88.7577 18.62 88.8611 18.3083 89.0677 18.095C89.2777 17.8783 89.5911 17.77 90.0077 17.77H90.9827L90.9877 18.425H90.2177C90.0044 18.425 89.8594 18.4817 89.7827 18.595C89.7061 18.7083 89.6677 18.88 89.6677 19.11V19.83H90.9377V20.505H89.6827V25H88.7577ZM94.0342 25.1C93.5576 25.1 93.1409 24.9983 92.7842 24.795C92.4309 24.5883 92.1559 24.2867 91.9592 23.89C91.7626 23.4933 91.6642 23.0083 91.6642 22.435C91.6642 21.895 91.7559 21.4217 91.9392 21.015C92.1226 20.6083 92.3909 20.2933 92.7442 20.07C93.0976 19.8433 93.5292 19.73 94.0392 19.73C94.5159 19.73 94.9292 19.835 95.2792 20.045C95.6292 20.2517 95.9009 20.5567 96.0942 20.96C96.2909 21.3633 96.3892 21.855 96.3892 22.435C96.3892 22.9617 96.2992 23.425 96.1192 23.825C95.9392 24.225 95.6742 24.5383 95.3242 24.765C94.9776 24.9883 94.5476 25.1 94.0342 25.1ZM94.0392 24.37C94.3459 24.37 94.6059 24.2917 94.8192 24.135C95.0326 23.9783 95.1942 23.7533 95.3042 23.46C95.4176 23.1667 95.4742 22.8183 95.4742 22.415C95.4742 22.045 95.4242 21.7133 95.3242 21.42C95.2276 21.1233 95.0742 20.8883 94.8642 20.715C94.6542 20.5417 94.3792 20.455 94.0392 20.455C93.7259 20.455 93.4609 20.5333 93.2442 20.69C93.0276 20.8433 92.8626 21.0667 92.7492 21.36C92.6392 21.6533 92.5842 22.005 92.5842 22.415C92.5842 22.7783 92.6326 23.1083 92.7292 23.405C92.8292 23.7017 92.9859 23.9367 93.1992 24.11C93.4159 24.2833 93.6959 24.37 94.0392 24.37ZM97.6185 25V19.83H98.4985V20.825C98.5852 20.5783 98.7068 20.375 98.8635 20.215C99.0202 20.0517 99.1985 19.93 99.3985 19.85C99.6018 19.77 99.8118 19.73 100.029 19.73C100.105 19.73 100.18 19.735 100.254 19.745C100.327 19.755 100.384 19.7717 100.424 19.795V20.69C100.374 20.6667 100.309 20.6517 100.229 20.645C100.152 20.635 100.087 20.63 100.034 20.63C99.8268 20.6167 99.6335 20.63 99.4535 20.67C99.2735 20.7067 99.1152 20.7717 98.9785 20.865C98.8418 20.9583 98.7335 21.0817 98.6535 21.235C98.5768 21.385 98.5385 21.5683 98.5385 21.785V25H97.6185ZM103.332 25.1C102.658 25.1 102.125 24.87 101.732 24.41C101.342 23.95 101.147 23.2783 101.147 22.395C101.147 21.8583 101.225 21.39 101.382 20.99C101.538 20.59 101.773 20.28 102.087 20.06C102.4 19.84 102.79 19.73 103.257 19.73C103.507 19.73 103.727 19.7617 103.917 19.825C104.107 19.8883 104.272 19.9683 104.412 20.065C104.552 20.1617 104.665 20.2617 104.752 20.365C104.842 20.4683 104.908 20.5633 104.952 20.65V17.57H105.887V25H105.177L105.077 23.94C105.043 24.04 104.99 24.1567 104.917 24.29C104.843 24.42 104.74 24.5483 104.607 24.675C104.477 24.7983 104.307 24.9 104.097 24.98C103.887 25.06 103.632 25.1 103.332 25.1ZM103.497 24.39C104.017 24.39 104.388 24.2317 104.612 23.915C104.838 23.595 104.952 23.0733 104.952 22.35C104.948 21.9467 104.898 21.6033 104.802 21.32C104.705 21.0367 104.552 20.8217 104.342 20.675C104.135 20.525 103.858 20.45 103.512 20.45C103.088 20.45 102.743 20.6017 102.477 20.905C102.21 21.2083 102.077 21.69 102.077 22.35C102.077 22.9967 102.197 23.4983 102.437 23.855C102.677 24.2117 103.03 24.39 103.497 24.39ZM108.863 25.1C108.527 25.1 108.23 25.0417 107.973 24.925C107.72 24.805 107.52 24.6333 107.373 24.41C107.23 24.1867 107.158 23.9167 107.158 23.6C107.158 23.0267 107.358 22.6 107.758 22.32C108.158 22.04 108.8 21.89 109.683 21.87L110.603 21.845V21.44C110.603 21.1233 110.508 20.8733 110.318 20.69C110.128 20.5033 109.835 20.41 109.438 20.41C109.142 20.4133 108.88 20.4833 108.653 20.62C108.427 20.7567 108.282 20.98 108.218 21.29H107.403C107.423 20.9533 107.517 20.67 107.683 20.44C107.853 20.2067 108.092 20.03 108.398 19.91C108.705 19.79 109.067 19.73 109.483 19.73C109.933 19.73 110.307 19.7933 110.603 19.92C110.903 20.0467 111.127 20.2333 111.273 20.48C111.423 20.7267 111.498 21.03 111.498 21.39V25H110.708L110.638 24.03C110.442 24.4333 110.188 24.7133 109.878 24.87C109.572 25.0233 109.233 25.1 108.863 25.1ZM109.138 24.435C109.315 24.435 109.488 24.4033 109.658 24.34C109.832 24.2767 109.988 24.1917 110.128 24.085C110.272 23.975 110.387 23.8533 110.473 23.72C110.56 23.5833 110.603 23.4433 110.603 23.3V22.415L109.838 22.43C109.442 22.4367 109.112 22.4767 108.848 22.55C108.585 22.6233 108.387 22.7383 108.253 22.895C108.12 23.0517 108.053 23.2567 108.053 23.51C108.053 23.8 108.155 24.0267 108.358 24.19C108.562 24.3533 108.822 24.435 109.138 24.435ZM115.496 25.1C115.192 25.1 114.936 25.06 114.726 24.98C114.519 24.9 114.349 24.7983 114.216 24.675C114.082 24.5483 113.979 24.42 113.906 24.29C113.832 24.1567 113.779 24.04 113.746 23.94L113.646 25H112.941V17.57H113.871V20.65C113.914 20.5633 113.979 20.4683 114.066 20.365C114.156 20.2617 114.271 20.1617 114.411 20.065C114.551 19.9683 114.716 19.8883 114.906 19.825C115.099 19.7617 115.319 19.73 115.566 19.73C116.212 19.73 116.726 19.955 117.106 20.405C117.489 20.855 117.681 21.5183 117.681 22.395C117.681 22.9383 117.599 23.4133 117.436 23.82C117.272 24.2233 117.029 24.5383 116.706 24.765C116.382 24.9883 115.979 25.1 115.496 25.1ZM115.331 24.39C115.751 24.39 116.092 24.2283 116.356 23.905C116.619 23.5783 116.751 23.06 116.751 22.35C116.751 21.7467 116.627 21.28 116.381 20.95C116.137 20.6167 115.781 20.45 115.311 20.45C114.967 20.45 114.691 20.525 114.481 20.675C114.274 20.8217 114.121 21.0367 114.021 21.32C113.924 21.6033 113.874 21.9467 113.871 22.35C113.871 23.0733 113.982 23.595 114.206 23.915C114.432 24.2317 114.807 24.39 115.331 24.39ZM118.933 25V19.83H119.828V25H118.933ZM118.908 18.735V17.775H119.853V18.735H118.908ZM122.742 25.065C122.462 25.065 122.235 25.0267 122.062 24.95C121.892 24.8733 121.76 24.77 121.667 24.64C121.577 24.51 121.515 24.3617 121.482 24.195C121.452 24.025 121.437 23.85 121.437 23.67V17.57H122.347V23.58C122.347 23.84 122.397 24.035 122.497 24.165C122.6 24.295 122.744 24.3667 122.927 24.38L123.207 24.385V24.985C123.13 25.0083 123.05 25.0267 122.967 25.04C122.884 25.0567 122.809 25.065 122.742 25.065ZM124.44 25V19.83H125.335V25H124.44ZM124.415 18.735V17.775H125.36V18.735H124.415ZM128.781 25.025C128.424 25.025 128.148 24.9767 127.951 24.88C127.754 24.7833 127.616 24.64 127.536 24.45C127.459 24.26 127.421 24.0267 127.421 23.75V20.505H126.581V19.83H127.446L127.671 18.325H128.351V19.825H129.516V20.505H128.351V23.72C128.351 23.9033 128.369 24.0383 128.406 24.125C128.446 24.2083 128.511 24.2617 128.601 24.285C128.691 24.3083 128.818 24.32 128.981 24.32H129.546V24.94C129.483 24.9633 129.386 24.9833 129.256 25C129.129 25.0167 128.971 25.025 128.781 25.025ZM131.288 26.65C130.984 26.65 130.776 26.6283 130.663 26.585C130.549 26.5417 130.493 26.52 130.493 26.52V25.92L131.023 25.93C131.213 25.9367 131.371 25.9233 131.498 25.89C131.624 25.8567 131.726 25.8117 131.803 25.755C131.879 25.6983 131.938 25.635 131.978 25.565C132.021 25.495 132.056 25.4283 132.083 25.365L132.263 24.875L130.243 19.83H131.178L132.703 23.82L134.218 19.83H135.123L132.948 25.39C132.811 25.7167 132.659 25.9717 132.493 26.155C132.329 26.3383 132.146 26.4667 131.943 26.54C131.743 26.6133 131.524 26.65 131.288 26.65ZM141.367 25.1C140.717 25.1 140.162 24.9517 139.702 24.655C139.245 24.3583 138.895 23.9317 138.652 23.375C138.412 22.8183 138.292 22.1467 138.292 21.36C138.292 20.5767 138.412 19.91 138.652 19.36C138.892 18.81 139.24 18.3917 139.697 18.105C140.157 17.815 140.714 17.67 141.367 17.67C141.877 17.67 142.329 17.7767 142.722 17.99C143.115 18.2 143.432 18.4817 143.672 18.835C143.912 19.1883 144.054 19.5767 144.097 20H143.112C143.059 19.7167 142.957 19.46 142.807 19.23C142.657 19 142.46 18.8167 142.217 18.68C141.974 18.5433 141.682 18.475 141.342 18.475C140.905 18.475 140.535 18.5783 140.232 18.785C139.932 18.9883 139.704 19.3033 139.547 19.73C139.394 20.1567 139.317 20.7033 139.317 21.37C139.317 22.3767 139.489 23.1167 139.832 23.59C140.179 24.06 140.682 24.295 141.342 24.295C141.682 24.295 141.974 24.2233 142.217 24.08C142.46 23.9367 142.657 23.745 142.807 23.505C142.957 23.265 143.059 23.005 143.112 22.725H144.097C144.06 23.0317 143.977 23.3283 143.847 23.615C143.72 23.8983 143.545 24.1517 143.322 24.375C143.099 24.5983 142.824 24.775 142.497 24.905C142.174 25.035 141.797 25.1 141.367 25.1ZM147.462 25.1C146.985 25.1 146.569 24.9983 146.212 24.795C145.859 24.5883 145.584 24.2867 145.387 23.89C145.19 23.4933 145.092 23.0083 145.092 22.435C145.092 21.895 145.184 21.4217 145.367 21.015C145.55 20.6083 145.819 20.2933 146.172 20.07C146.525 19.8433 146.957 19.73 147.467 19.73C147.944 19.73 148.357 19.835 148.707 20.045C149.057 20.2517 149.329 20.5567 149.522 20.96C149.719 21.3633 149.817 21.855 149.817 22.435C149.817 22.9617 149.727 23.425 149.547 23.825C149.367 24.225 149.102 24.5383 148.752 24.765C148.405 24.9883 147.975 25.1 147.462 25.1ZM147.467 24.37C147.774 24.37 148.034 24.2917 148.247 24.135C148.46 23.9783 148.622 23.7533 148.732 23.46C148.845 23.1667 148.902 22.8183 148.902 22.415C148.902 22.045 148.852 21.7133 148.752 21.42C148.655 21.1233 148.502 20.8883 148.292 20.715C148.082 20.5417 147.807 20.455 147.467 20.455C147.154 20.455 146.889 20.5333 146.672 20.69C146.455 20.8433 146.29 21.0667 146.177 21.36C146.067 21.6533 146.012 22.005 146.012 22.415C146.012 22.7783 146.06 23.1083 146.157 23.405C146.257 23.7017 146.414 23.9367 146.627 24.11C146.844 24.2833 147.124 24.37 147.467 24.37ZM151.046 25V19.83H151.926V20.825C152.013 20.5783 152.135 20.375 152.291 20.215C152.448 20.0517 152.626 19.93 152.826 19.85C153.03 19.77 153.24 19.73 153.456 19.73C153.533 19.73 153.608 19.735 153.681 19.745C153.755 19.755 153.811 19.7717 153.851 19.795V20.69C153.801 20.6667 153.736 20.6517 153.656 20.645C153.58 20.635 153.515 20.63 153.461 20.63C153.255 20.6167 153.061 20.63 152.881 20.67C152.701 20.7067 152.543 20.7717 152.406 20.865C152.27 20.9583 152.161 21.0817 152.081 21.235C152.005 21.385 151.966 21.5683 151.966 21.785V25H151.046ZM154.953 26.61V19.83H155.873L155.883 20.73C155.943 20.6233 156.019 20.5117 156.113 20.395C156.209 20.2783 156.326 20.17 156.463 20.07C156.603 19.97 156.764 19.8883 156.948 19.825C157.134 19.7617 157.346 19.73 157.583 19.73C157.996 19.73 158.359 19.825 158.673 20.015C158.989 20.2017 159.236 20.4883 159.413 20.875C159.589 21.2617 159.678 21.7517 159.678 22.345C159.678 22.9383 159.591 23.44 159.418 23.85C159.248 24.2567 159.001 24.5667 158.678 24.78C158.354 24.9933 157.964 25.1 157.508 25.1C157.278 25.1 157.073 25.0667 156.893 25C156.716 24.9367 156.561 24.8533 156.428 24.75C156.298 24.6433 156.188 24.53 156.098 24.41C156.011 24.29 155.939 24.175 155.883 24.065V26.61H154.953ZM157.333 24.38C157.759 24.38 158.108 24.2183 158.378 23.895C158.648 23.5683 158.783 23.0617 158.783 22.375C158.783 21.785 158.659 21.3167 158.413 20.97C158.166 20.6233 157.806 20.45 157.333 20.45C156.853 20.45 156.489 20.6283 156.243 20.985C155.996 21.3383 155.873 21.8017 155.873 22.375C155.873 22.745 155.928 23.0817 156.038 23.385C156.148 23.6883 156.311 23.93 156.528 24.11C156.744 24.29 157.013 24.38 157.333 24.38ZM162.74 25.1C162.38 25.1 162.045 25.045 161.735 24.935C161.429 24.8217 161.174 24.6467 160.97 24.41C160.767 24.17 160.64 23.865 160.59 23.495H161.43C161.474 23.6983 161.557 23.8683 161.68 24.005C161.804 24.1383 161.955 24.24 162.135 24.31C162.319 24.3767 162.519 24.41 162.735 24.41C163.085 24.41 163.367 24.345 163.58 24.215C163.794 24.085 163.9 23.885 163.9 23.615C163.9 23.425 163.844 23.2733 163.73 23.16C163.62 23.0433 163.447 22.9583 163.21 22.905L162.14 22.64C161.724 22.54 161.39 22.3833 161.14 22.17C160.894 21.9567 160.769 21.6583 160.765 21.275C160.765 20.9717 160.839 20.705 160.985 20.475C161.132 20.245 161.35 20.0633 161.64 19.93C161.934 19.7967 162.299 19.73 162.735 19.73C163.299 19.73 163.752 19.8567 164.095 20.11C164.439 20.36 164.619 20.7283 164.635 21.215H163.815C163.782 20.9683 163.672 20.7733 163.485 20.63C163.299 20.4833 163.045 20.41 162.725 20.41C162.399 20.41 162.13 20.4767 161.92 20.61C161.714 20.74 161.61 20.9433 161.61 21.22C161.61 21.4033 161.684 21.5483 161.83 21.655C161.98 21.7583 162.197 21.845 162.48 21.915L163.52 22.175C163.757 22.2383 163.954 22.3217 164.11 22.425C164.267 22.5283 164.39 22.6433 164.48 22.77C164.57 22.8967 164.634 23.03 164.67 23.17C164.71 23.3067 164.73 23.4383 164.73 23.565C164.73 23.8817 164.652 24.155 164.495 24.385C164.339 24.6117 164.112 24.7883 163.815 24.915C163.519 25.0383 163.16 25.1 162.74 25.1Z" fill="#191919"/>
<defs>
<clipPath id="clip0_34_3812">
<rect width="69" height="26" fill="white" transform="translate(0 1)"/>
</clipPath>
</defs>
</svg>
